<?xml version="1.0" standalone="no"?>
<!DOCTYPE svg PUBLIC "-//W3C//DTD SVG 20010904//EN"
 "http://www.w3.org/TR/2001/REC-SVG-20010904/DTD/svg10.dtd">
<svg version="1.0" xmlns="http://www.w3.org/2000/svg"
 width="700.000000pt" height="700.000000pt" viewBox="0 0 700.000000 700.000000"
 preserveAspectRatio="xMidYMid meet">
<metadata>
Created by potrace 1.11, written by Peter Selinger 2001-2013
</metadata>
<g transform="translate(0.000000,700.000000) scale(0.100000,-0.100000)"
fill="#000000" stroke="none">
<path d="M3600 6579 c-270 -18 -533 -60 -836 -134 -606 -149 -1062 -400 -1469
-809 -187 -188 -322 -358 -546 -691 -202 -299 -348 -798 -389 -1330 -34 -436
134 -1253 287 -1397 37 -35 138 -95 172 -103 23 -5 35 -21 75 -109 102 -221
368 -598 556 -787 197 -198 497 -400 810 -546 41 -20 107 -50 145 -68 251
-116 571 -208 830 -236 157 -17 757 -18 860 -1 409 68 813 217 1182 436 126
75 177 115 378 297 255 231 358 349 497 572 240 384 419 924 459 1377 23 270
-23 678 -86 768 -22 30 -51 28 -69 -6 -30 -58 -37 -139 -25 -311 14 -194 6
-457 -16 -591 -47 -281 -160 -597 -295 -824 -164 -274 -438 -578 -700 -775
-199 -150 -505 -270 -549 -217 -19 23 0 46 90 112 94 68 265 202 342 267 158
136 472 547 600 787 133 249 201 728 141 992 -9 37 -20 71 -26 74 -6 4 -20 -4
-31 -17 -41 -49 -78 -151 -151 -409 -107 -380 -168 -518 -305 -689 -209 -260
-273 -328 -396 -419 -87 -64 -190 -114 -228 -110 -59 6 -46 34 68 151 164 170
284 362 360 578 30 85 36 115 33 161 -7 103 -21 93 -83 -55 -67 -157 -88 -198
-168 -317 -124 -186 -273 -346 -442 -475 -101 -78 -169 -116 -289 -164 -280
-111 -590 -134 -936 -70 -231 43 -440 138 -679 308 -244 172 -434 397 -566
666 -181 371 -229 676 -165 1044 53 306 127 456 346 703 216 242 431 387 708
477 196 64 344 85 586 85 213 -1 311 -12 470 -55 205 -55 488 -254 820 -574
80 -78 159 -151 177 -163 191 -134 499 -161 710 -62 169 79 368 246 442 373
156 266 122 606 -98 968 -108 177 -209 293 -463 526 -37 35 -59 63 -63 85 -17
78 -71 143 -184 222 -264 184 -612 342 -911 414 -314 76 -594 96 -980 71z"/>
</g>
</svg>
